# xmcd
#
# Track frame offsets: 
#        150
#        13514
#        30122
#        42376
#        60347
#        77709
#        92542
#        96527
#        110781
#        115327
#        129273
#        132138
#        144723
#        161621
#        185290
#
# Disc length: 2499 seconds
#
# Revision: 0
# Processed by: cddbd v1.5PL3 Copyright (c) Steve Scherf et al.
# Submitted via: ExactAudioCopy v0.95a4
#
DISCID=be09c10f
DTITLE=Convertible - Convertible
DYEAR=2004
DGENRE=Rock
TTITLE0=Morning
TTITLE1=Your Reward
TTITLE2=Just As Long
TTITLE3=Skuks and Porcupines
TTITLE4=Your Pull Is Gone
TTITLE5=I Shall Try
TTITLE6=Interlude 1
TTITLE7=Weather
TTITLE8=Interlude 2
TTITLE9=Bleeding Inside
TTITLE10=Interlude 3
TTITLE11=Saving All My Love
TTITLE12=I saw You
TTITLE13=Steps
TTITLE14=?
EXTD=
EXTT0=
EXTT1=
EXTT2=
EXTT3=
EXTT4=
EXTT5=
EXTT6=
EXTT7=
EXTT8=
EXTT9=
EXTT10=
EXTT11=
EXTT12=
EXTT13=
EXTT14=
PLAYORDER=
